<?xml version="1.0" standalone="no"?>
<!DOCTYPE svg PUBLIC "-//W3C//DTD SVG 20010904//EN"
 "http://www.w3.org/TR/2001/REC-SVG-20010904/DTD/svg10.dtd">
<svg version="1.0" xmlns="http://www.w3.org/2000/svg"
 width="1965.000000pt" height="1965.000000pt" viewBox="0 0 1965.000000 1965.000000"
 preserveAspectRatio="xMidYMid meet">
<metadata>
Created by potrace 1.14, written by Peter Selinger 2001-2017
</metadata>
<g transform="translate(0.000000,1965.000000) scale(0.100000,-0.100000)"
fill="#000000" stroke="none">
<path d="M4949 18609 c-1 -35 -2 -170 -4 -299 -1 -129 -6 -543 -10 -920 -4
-377 -9 -928 -10 -1225 -1 -297 -5 -664 -9 -815 -4 -151 -9 -340 -11 -420 -7
-343 -18 -869 -20 -1045 -2 -104 -6 -226 -9 -270 -13 -167 -15 -193 -21 -285
-13 -200 -24 -393 -30 -520 -3 -58 -8 -145 -10 -195 -12 -231 -22 -523 -30
-832 -3 -133 -8 -252 -10 -265 -3 -13 -8 -43 -11 -68 -3 -25 -8 -54 -10 -65
-2 -11 -7 -40 -10 -65 -3 -25 -8 -53 -10 -64 -2 -10 -6 -44 -9 -75 -3 -31 -8
-70 -10 -88 -3 -18 -7 -63 -10 -100 -4 -37 -8 -90 -10 -118 -3 -27 -7 -88 -10
-135 -10 -158 -14 -190 -29 -218 -15 -29 -49 -134 -61 -186 -6 -28 -8 -26 -29
35 -13 35 -31 82 -41 104 -21 47 -21 51 -30 181 -11 174 -33 390 -50 485 -3
14 -7 43 -10 65 -3 21 -8 48 -9 59 -2 11 -9 52 -16 90 -6 39 -13 140 -15 225
-9 370 -23 676 -50 1125 -2 39 -7 115 -10 170 -3 55 -8 120 -10 145 -2 25 -7
88 -11 140 -4 52 -8 109 -10 125 -4 36 -11 294 -19 680 -6 325 -14 626 -20
845 -3 85 -7 416 -10 735 -2 319 -7 776 -10 1015 -2 239 -7 669 -11 955 -3
286 -7 522 -10 524 -2 2 -5 -92 -5 -210 -1 -118 -3 -308 -4 -424 -1 -115 -5
-505 -9 -865 -4 -360 -9 -862 -11 -1115 -3 -253 -7 -534 -9 -625 -7 -198 -14
-510 -21 -870 -6 -296 -15 -594 -19 -655 -2 -22 -6 -78 -10 -125 -4 -47 -9
-112 -11 -145 -3 -33 -7 -91 -9 -130 -5 -67 -11 -161 -21 -340 -4 -76 -11
-200 -20 -400 -5 -103 -14 -348 -20 -575 -3 -85 -7 -166 -10 -180 -2 -13 -7
-40 -10 -60 -3 -20 -7 -45 -9 -55 -2 -11 -7 -40 -11 -65 -4 -25 -9 -52 -10
-61 -2 -9 -6 -40 -10 -70 -3 -30 -8 -65 -10 -79 -3 -24 -15 -145 -20 -205 -1
-16 -6 -75 -10 -130 -10 -140 -10 -137 -27 -170 -20 -39 -52 -135 -68 -205
-12 -49 -14 -52 -22 -30 -5 13 -20 39 -33 56 -25 33 -30 50 -40 144 -12 113
-40 256 -70 360 -18 65 -25 119 -30 233 -3 81 -7 171 -10 200 -2 29 -7 88 -10
132 -3 44 -8 100 -10 125 -2 25 -7 74 -10 110 -3 36 -7 83 -10 105 -2 22 -6
67 -10 100 -3 33 -8 71 -10 85 -2 14 -7 54 -10 90 -4 36 -9 74 -11 85 -3 11
-7 88 -9 170 -11 357 -21 620 -30 800 -6 102 -8 259 -20 1075 -4 256 -8 534
-9 617 -2 84 -6 156 -9 160 -4 3 -8 -61 -8 -143 -1 -82 -3 -216 -4 -299 -1
-82 -5 -391 -9 -685 -4 -294 -9 -571 -11 -615 -4 -78 -15 -336 -20 -465 -1
-36 -6 -170 -10 -297 -3 -128 -8 -250 -10 -270 -5 -55 -16 -151 -20 -171 -3
-17 -12 -97 -20 -182 -2 -25 -7 -70 -10 -100 -16 -160 -17 -173 -30 -355 -6
-84 -14 -238 -19 -357 -3 -48 -7 -91 -10 -96 -7 -11 -44 -150 -51 -192 -3 -19
-8 -42 -10 -50 -2 -8 -7 -35 -10 -60 -3 -25 -8 -52 -10 -60 -2 -8 -7 -45 -10
-82 -4 -54 -12 -76 -39 -117 -19 -28 -39 -66 -46 -86 -6 -19 -13 -35 -15 -35
-10 0 -77 77 -80 91 -2 9 -6 32 -9 50 -15 88 -39 172 -71 250 -16 38 -25 84
-30 150 -5 89 -8 125 -20 229 -11 104 -16 146 -20 170 -3 14 -7 41 -9 60 -3
19 -8 51 -11 70 -4 19 -8 44 -10 55 -1 11 -8 49 -15 85 -6 36 -13 103 -15 150
-5 108 -16 330 -20 395 -14 199 -18 277 -20 400 -1 77 -6 293 -10 480 -4 187
-8 377 -9 422 -3 121 -13 111 -16 -14 -1 -59 -4 -153 -5 -208 -1 -55 -6 -262
-10 -460 -4 -198 -8 -380 -10 -405 -3 -41 -11 -179 -20 -335 -2 -33 -6 -123
-10 -200 -5 -136 -10 -184 -21 -235 -3 -14 -9 -52 -15 -85 -5 -33 -12 -73 -15
-90 -3 -16 -7 -46 -10 -65 -2 -19 -6 -51 -9 -70 -14 -101 -23 -189 -30 -295
-9 -129 -14 -150 -43 -228 -17 -42 -28 -77 -25 -77 3 0 0 -7 -7 -15 -7 -8 -10
-15 -7 -15 3 0 -1 -24 -9 -52 -7 -29 -16 -71 -20 -92 -4 -27 -17 -52 -40 -75
-49 -50 -74 -108 -74 -167 1 -56 19 -96 72 -152 28 -31 39 -52 44 -88 3 -27
10 -59 15 -71 5 -13 7 -23 5 -23 -6 0 18 -74 49 -155 27 -72 29 -83 40 -242 3
-51 8 -102 10 -113 2 -10 6 -47 10 -82 3 -35 8 -75 10 -89 3 -14 7 -42 10 -62
3 -20 7 -54 10 -74 5 -36 10 -65 20 -113 12 -64 15 -78 19 -115 3 -22 8 -105
11 -185 8 -205 14 -326 19 -395 13 -170 17 -281 21 -495 4 -208 16 -747 19
-792 0 -9 3 -15 6 -12 2 3 5 45 6 92 1 85 11 552 19 882 2 91 7 197 10 235 3
39 7 97 10 130 4 58 13 256 20 437 3 89 14 174 29 226 3 9 7 37 10 62 3 25 8
54 10 65 8 46 23 154 31 238 3 28 8 70 10 92 3 22 7 84 11 138 4 76 12 114 35
169 16 39 31 81 33 92 2 12 11 48 19 81 9 33 17 74 19 91 3 26 66 114 82 114
3 0 10 -16 16 -35 7 -20 27 -58 45 -84 25 -38 34 -64 39 -113 3 -34 8 -74 10
-88 3 -14 8 -43 11 -65 14 -87 17 -101 26 -140 5 -22 12 -50 15 -63 2 -13 11
-43 20 -67 8 -25 17 -82 19 -127 2 -46 7 -132 10 -193 3 -60 7 -135 10 -165 2
-30 7 -89 10 -130 3 -41 7 -95 10 -120 2 -25 7 -71 10 -103 2 -32 7 -77 10
-100 3 -23 7 -62 10 -87 6 -62 14 -128 20 -170 10 -72 14 -140 20 -380 4 -135
8 -292 10 -350 1 -58 6 -168 10 -245 4 -77 9 -169 10 -205 2 -36 6 -297 10
-580 5 -283 9 -585 10 -670 2 -85 3 -218 4 -294 0 -77 4 -136 8 -132 4 3 8 70
9 149 14 1093 22 1500 28 1627 10 179 16 335 21 525 13 458 15 503 30 595 4
24 11 87 20 175 3 22 7 60 10 85 4 41 10 100 20 215 13 143 19 245 29 455 7
152 9 169 35 260 15 51 15 51 35 145 17 80 19 94 41 279 2 22 8 42 13 45 5 3
20 26 35 50 l26 45 6 -30 c14 -58 55 -186 71 -216 19 -37 21 -47 29 -173 3
-55 8 -120 10 -145 10 -108 23 -222 30 -270 2 -14 7 -45 10 -70 3 -25 9 -58
11 -75 3 -16 7 -41 9 -55 4 -26 11 -66 20 -110 3 -14 7 -106 10 -205 8 -266
21 -610 30 -775 2 -47 7 -131 10 -188 3 -57 8 -129 10 -160 2 -31 7 -102 10
-157 3 -55 8 -125 10 -155 2 -30 7 -91 10 -135 3 -44 8 -100 11 -125 5 -57 11
-273 19 -710 7 -425 13 -710 20 -900 3 -80 7 -341 10 -580 4 -439 16 -1580 20
-1940 1 -107 3 -296 4 -419 0 -123 3 -222 5 -220 3 2 7 243 11 534 3 292 8
708 10 925 3 217 7 665 11 995 3 330 7 638 9 685 4 126 14 553 20 895 8 443
15 696 19 735 3 19 7 76 11 126 3 50 8 111 10 135 6 66 18 250 40 644 11 196
23 521 30 782 3 113 7 208 9 212 3 3 7 25 10 47 6 40 11 67 21 114 3 14 7 45
10 70 3 25 7 56 9 70 5 23 8 54 21 185 3 28 8 70 10 95 3 25 8 86 11 135 9
138 10 146 37 205 14 30 31 77 38 103 12 51 17 54 24 15 6 -34 39 -134 60
-183 10 -22 19 -60 20 -85 13 -224 31 -424 50 -580 10 -82 14 -105 19 -135 3
-16 7 -48 11 -70 3 -23 7 -50 9 -60 13 -70 16 -127 21 -350 8 -337 17 -558 40
-1020 4 -77 9 -158 10 -180 10 -173 17 -297 20 -335 2 -25 6 -88 10 -140 3
-52 8 -117 11 -145 5 -50 8 -183 19 -895 3 -212 8 -455 10 -540 2 -85 7 -261
11 -390 3 -129 7 -485 9 -790 1 -305 6 -825 9 -1155 4 -330 9 -750 11 -933 2
-184 6 -336 9 -339 3 -4 7 99 7 228 1 129 3 338 4 464 1 127 5 586 9 1020 6
729 15 1442 21 1660 5 171 15 672 20 1030 5 342 13 612 20 700 4 55 14 205 20
290 4 64 7 107 20 325 7 117 20 388 30 625 5 124 16 487 20 660 1 72 6 146 9
165 12 65 25 145 31 190 3 25 8 56 10 70 3 25 14 118 20 175 3 27 13 137 20
220 1 17 6 82 9 145 8 134 12 158 24 173 9 11 41 103 42 119 1 4 7 26 15 48 8
22 14 42 15 45 0 3 0 17 0 33 1 24 4 21 27 -23 14 -27 31 -57 39 -66 8 -8 16
-42 19 -75 6 -64 13 -127 21 -189 5 -38 7 -54 19 -127 9 -55 47 -233 51 -239
7 -12 13 -95 20 -264 3 -93 7 -190 9 -215 4 -69 17 -271 20 -310 1 -19 5 -73
9 -120 3 -47 8 -103 10 -125 2 -22 7 -74 11 -115 3 -41 8 -86 10 -100 2 -14 7
-54 10 -90 3 -36 8 -76 10 -90 2 -14 7 -133 10 -265 14 -556 19 -717 31 -990
2 -49 6 -236 8 -415 11 -750 19 -1435 20 -1572 0 -82 3 -148 6 -148 3 0 6 39
6 88 1 48 4 308 8 577 4 270 9 672 11 894 4 378 8 502 20 776 5 109 10 281 20
735 5 219 11 344 20 388 1 10 6 49 10 87 3 39 8 86 10 105 2 19 7 69 10 110 3
41 8 95 10 120 7 69 15 174 20 269 3 47 7 118 10 156 2 39 7 133 10 210 12
264 14 290 23 316 6 14 13 43 16 63 4 21 8 41 10 45 2 3 7 22 10 41 3 19 7 44
10 55 3 19 13 77 21 135 6 36 14 115 20 190 4 46 13 76 30 103 30 44 65 130
65 157 0 27 9 25 47 -10 19 -17 35 -43 38 -62 3 -18 11 -51 16 -73 6 -22 13
-49 15 -60 2 -11 17 -55 34 -97 37 -91 37 -92 44 -200 4 -45 9 -99 11 -118 3
-19 7 -57 10 -85 7 -64 12 -101 20 -145 3 -19 8 -47 10 -62 12 -73 17 -98 30
-163 8 -38 17 -135 21 -215 3 -80 8 -165 9 -190 5 -82 16 -234 20 -280 2 -25
7 -146 9 -270 3 -124 9 -342 12 -485 4 -143 7 -292 8 -332 2 -89 11 -104 12
-20 1 34 4 177 8 317 4 140 9 359 11 485 3 127 7 255 10 285 4 51 8 104 20
290 3 41 7 131 10 200 6 122 9 158 20 210 3 14 8 39 10 55 3 17 8 37 10 45 2
8 7 35 10 60 3 25 8 56 10 70 10 52 15 87 20 135 3 28 7 66 10 85 2 19 7 71
10 115 8 114 12 132 45 211 16 39 34 93 41 120 6 27 12 54 13 59 2 6 6 28 11
49 5 25 19 49 36 64 16 13 36 36 46 52 l16 28 37 -24 c28 -19 40 -36 53 -81
10 -31 34 -83 53 -115 37 -61 40 -70 48 -158 3 -30 8 -66 11 -80 3 -14 7 -36
10 -50 10 -51 14 -67 34 -145 36 -136 37 -141 46 -260 3 -44 8 -96 10 -115 17
-171 22 -251 31 -500 3 -113 8 -227 9 -255 1 -27 3 -78 4 -112 1 -70 17 -88
18 -20 0 23 3 107 7 187 3 80 8 217 11 305 4 146 10 230 20 325 6 49 14 141
20 235 3 44 13 101 21 126 8 25 17 55 19 67 3 12 7 31 10 43 2 11 6 28 9 37 3
9 8 33 11 52 3 19 8 42 10 50 6 22 13 67 20 130 7 72 10 80 49 144 18 30 41
79 50 110 14 43 25 60 52 77 19 11 40 30 48 41 20 28 69 16 101 -25 13 -18 37
-41 54 -51 18 -13 33 -35 41 -60 6 -23 31 -77 55 -121 28 -52 46 -99 50 -134
4 -30 11 -64 15 -77 11 -29 18 -80 26 -189 4 -49 8 -101 9 -115 2 -14 3 -38 4
-54 3 -74 16 3 26 154 8 108 11 134 24 190 12 55 22 107 26 138 2 13 14 40 27
60 34 54 66 123 72 156 3 17 13 34 23 39 10 6 36 29 58 52 54 57 85 64 109 24
10 -17 34 -42 54 -57 21 -15 38 -33 39 -39 1 -6 5 -26 8 -45 8 -48 44 -147 70
-195 16 -30 25 -67 29 -120 3 -43 8 -87 10 -98 2 -11 7 -45 10 -75 7 -56 13
-95 21 -140 12 -59 15 -77 20 -102 3 -16 12 -57 20 -93 9 -36 18 -102 20 -148
5 -98 14 -218 21 -307 12 -132 13 -158 18 -280 3 -69 8 -228 11 -355 8 -323
15 -498 20 -504 3 -2 6 27 6 65 1 38 3 103 4 144 1 41 5 201 9 355 6 255 11
389 21 485 4 42 13 165 20 275 12 197 16 230 26 269 11 40 14 55 24 106 3 14
7 34 9 45 2 11 7 40 11 65 4 25 9 52 10 60 5 26 16 114 20 155 2 22 7 66 10
98 3 33 16 80 31 110 24 45 59 138 62 160 8 60 18 81 53 109 46 37 80 104 73
144 -7 37 -23 62 -71 108 -33 31 -42 49 -57 111 -9 40 -33 106 -53 147 -23 48
-36 92 -39 128 -5 82 -22 224 -29 250 -2 8 -7 35 -10 60 -4 25 -13 77 -21 115
-9 39 -17 78 -19 88 -2 10 -7 27 -10 36 -3 10 -7 47 -10 82 -5 74 -16 241 -20
314 -2 28 -6 82 -9 120 -14 151 -15 190 -22 470 -4 160 -8 326 -9 370 -1 44
-3 113 -4 154 0 41 -3 72 -6 69 -5 -5 -12 -167 -20 -508 -6 -256 -14 -479 -20
-530 -6 -69 -19 -248 -30 -420 -3 -47 -7 -94 -10 -105 -2 -11 -9 -38 -14 -60
-6 -22 -12 -53 -15 -70 -3 -16 -8 -41 -11 -55 -12 -64 -15 -78 -20 -115 -3
-23 -7 -50 -9 -61 -5 -23 -13 -99 -21 -194 -4 -45 -16 -87 -40 -137 -19 -39
-42 -105 -51 -145 -14 -61 -23 -79 -54 -108 -21 -19 -45 -48 -55 -63 -25 -38
-53 -30 -116 33 -28 28 -54 50 -59 50 -4 0 -12 15 -15 33 -7 29 -20 58 -83
182 -11 22 -23 60 -26 85 -4 25 -11 63 -17 85 -12 46 -16 79 -23 190 -11 153
-24 231 -27 154 -1 -19 -3 -43 -4 -54 -2 -11 -6 -63 -9 -115 -7 -103 -12 -136
-26 -190 -5 -19 -12 -53 -16 -75 -3 -22 -7 -44 -8 -50 -1 -5 -20 -43 -43 -84
-23 -41 -47 -94 -54 -118 -7 -26 -21 -48 -33 -55 -12 -6 -37 -29 -56 -50 -38
-42 -93 -61 -103 -35 -3 8 -27 28 -53 45 -26 18 -45 32 -41 32 11 0 -33 114
-62 162 -35 56 -39 68 -46 138 -6 54 -10 80 -20 130 -3 14 -8 40 -11 59 -3 18
-19 79 -34 136 -16 56 -31 133 -34 171 -5 71 -15 182 -21 244 -10 90 -16 196
-20 320 -4 155 -15 441 -19 500 -4 63 -13 57 -16 -12 -1 -35 -3 -88 -5 -118
-1 -30 -6 -140 -9 -245 -9 -244 -15 -372 -21 -410 -4 -30 -10 -99 -21 -230 -8
-103 -12 -136 -24 -175 -17 -53 -37 -130 -45 -175 -5 -22 -9 -44 -11 -50 -10
-41 -24 -140 -28 -201 -1 -11 -16 -43 -33 -70 -18 -27 -42 -82 -55 -121 -13
-40 -28 -73 -34 -73 -6 0 -22 -9 -36 -19 l-24 -20 -17 29 c-10 16 -30 40 -47
53 -17 15 -32 39 -35 59 -16 91 -54 218 -81 270 -16 30 -21 59 -29 168 -7 85
-12 137 -19 195 -3 22 -8 63 -11 90 -4 28 -8 57 -10 65 -2 8 -7 30 -10 48 -8
47 -14 84 -20 112 -21 101 -22 113 -30 280 -4 80 -9 163 -10 185 -6 104 -17
254 -20 290 -2 22 -7 173 -10 335 -4 162 -9 345 -10 405 -1 61 -3 149 -4 198
0 48 -5 87 -10 87 -5 0 -10 -48 -11 -107 -1 -60 -4 -160 -5 -223 -2 -63 -6
-241 -10 -395 -3 -154 -8 -298 -10 -320 -3 -35 -11 -148 -20 -280 -1 -22 -6
-110 -10 -195 -4 -85 -9 -157 -10 -160 -2 -3 -6 -25 -10 -50 -4 -25 -8 -47
-11 -51 -2 -3 -6 -26 -10 -50 -3 -24 -7 -53 -9 -64 -2 -11 -6 -38 -10 -60 -3
-22 -7 -51 -10 -65 -3 -14 -7 -45 -10 -70 -12 -122 -15 -150 -20 -215 -7 -96
-14 -137 -24 -149 -10 -13 -58 -145 -66 -181 -3 -14 -7 -37 -10 -52 -12 -65
-18 -77 -50 -107 l-34 -32 -16 50 c-9 28 -32 79 -51 114 -24 44 -36 81 -40
125 -6 69 -8 87 -18 167 -11 88 -22 152 -41 240 -3 14 -7 35 -10 48 -2 13 -7
32 -10 42 -17 54 -21 98 -30 335 -4 88 -8 183 -10 210 -2 28 -6 97 -10 155
-14 228 -33 458 -52 620 -20 183 -23 227 -29 480 -3 140 -8 293 -9 340 -6 183
-16 480 -20 575 -2 55 -7 316 -9 580 -3 264 -9 685 -12 935 -4 250 -7 488 -7
528 0 39 -3 72 -6 72 -3 0 -6 -55 -7 -123 -1 -67 -4 -367 -8 -667 -4 -300 -9
-702 -11 -895 -2 -192 -7 -404 -9 -470 -10 -228 -17 -444 -31 -955 -4 -118 -8
-228 -10 -245 -1 -16 -6 -59 -10 -95 -4 -36 -8 -76 -10 -90 -1 -14 -6 -59 -10
-100 -4 -41 -8 -92 -10 -112 -2 -21 -7 -77 -10 -125 -3 -48 -8 -107 -10 -131
-10 -113 -21 -315 -30 -532 -6 -172 -10 -217 -19 -247 -3 -10 -8 -30 -11 -45
-3 -16 -7 -38 -10 -50 -3 -13 -7 -33 -9 -46 -3 -13 -7 -31 -10 -40 -3 -9 -7
-39 -11 -66 -3 -27 -8 -52 -9 -55 -5 -8 -20 -140 -31 -265 -2 -26 -10 -56 -17
-65 -7 -9 -24 -38 -38 -64 l-25 -48 -6 33 c-15 81 -20 102 -25 110 -3 4 -7 16
-9 27 -2 10 -15 47 -29 82 -19 48 -26 90 -31 169 -5 96 -9 147 -20 280 -11
118 -24 236 -30 269 -1 9 -6 41 -10 71 -4 30 -9 64 -11 75 -2 11 -7 40 -10 65
-3 25 -8 54 -10 65 -3 11 -7 88 -9 170 -14 479 -23 724 -40 1065 -13 271 -38
670 -51 820 -5 67 -14 357 -19 645 -5 299 -15 769 -20 980 -5 212 -15 1001
-20 1700 -9 1111 -16 1780 -21 1784 -2 2 -5 -25 -5 -60z"/>
<path d="M5677 15823 c-10 -9 -9 -23 1 -23 5 0 9 7 9 15 0 17 -1 18 -10 8z"/>
<path d="M6404 13070 c0 -33 3 -57 6 -55 8 5 7 101 0 109 -3 2 -5 -22 -6 -54z"/>
<path d="M9840 12039 c-40 -18 -71 -56 -87 -104 -5 -16 -9 -100 -8 -186 1
-149 2 -157 28 -201 48 -82 4 -78 790 -78 467 0 703 3 723 11 39 14 75 62 89
118 7 26 11 108 11 186 -2 135 -3 143 -29 188 -51 86 -1 81 -786 82 -625 0
-698 -1 -731 -16z"/>
<path d="M11849 10437 c-19 -13 -45 -43 -59 -67 -23 -43 -24 -54 -24 -200 0
-141 2 -160 23 -203 12 -26 37 -57 54 -69 l32 -23 700 -1 c385 0 712 4 726 8
14 5 38 21 52 36 45 47 56 97 56 254 0 160 -10 198 -68 253 l-32 30 -713 2
-713 3 -34 -23z"/>
<path d="M15896 10445 c-39 -20 -71 -59 -84 -102 -17 -55 -14 -319 4 -362 19
-45 59 -87 93 -99 14 -4 339 -8 721 -7 l695 0 36 23 c23 14 45 40 59 69 20 43
21 59 18 213 -3 162 -4 168 -30 208 -51 76 -5 72 -785 72 -602 0 -702 -2 -727
-15z"/>
<path d="M9821 8838 c-22 -14 -42 -40 -56 -72 -20 -46 -22 -66 -20 -207 1
-150 2 -158 29 -203 47 -81 -3 -76 795 -76 l711 0 40 36 c56 51 69 103 65 274
-3 151 -10 178 -62 232 l-37 37 -715 1 -716 0 -34 -22z"/>
<path d="M13869 7267 c-61 -40 -74 -82 -77 -256 -3 -125 0 -163 13 -197 21
-55 75 -104 118 -105 155 -7 1360 -3 1387 4 42 11 76 40 100 87 15 30 18 63
19 195 2 151 0 163 -22 205 -13 25 -38 55 -57 68 l-33 22 -707 0 -707 0 -34
-23z"/>
<path d="M2761 6764 c0 -11 3 -14 6 -6 3 7 2 16 -1 19 -3 4 -6 -2 -5 -13z"/>
</g>
</svg>
